<mxfile host="app.diagrams.net" modified="2024-01-31T14:20:15.298Z" agent="Mozilla/5.0 (Windows NT 10.0; Win64; x64; rv:122.0) Gecko/20100101 Firefox/122.0" etag="aGS4rwdr84eJDHLwIf18" version="23.0.2" type="device">
  <diagram id="C5RBs43oDa-KdzZeNtuy" name="Page-1">
    <mxGraphModel dx="3886" dy="995" grid="1" gridSize="10" guides="1" tooltips="1" connect="1" arrows="1" fold="1" page="1" pageScale="1" pageWidth="827" pageHeight="1169" math="0" shadow="0">
      <root>
        <mxCell id="WIyWlLk6GJQsqaUBKTNV-0" />
        <mxCell id="WIyWlLk6GJQsqaUBKTNV-1" parent="WIyWlLk6GJQsqaUBKTNV-0" />
        <mxCell id="zkfFHV4jXpPFQw0GAbJ--17" value="ParticipacaoController" style="swimlane;fontStyle=1;align=center;verticalAlign=top;childLayout=stackLayout;horizontal=1;startSize=26;horizontalStack=0;resizeParent=1;resizeLast=0;collapsible=1;marginBottom=0;rounded=0;shadow=0;strokeWidth=1;" parent="WIyWlLk6GJQsqaUBKTNV-1" vertex="1">
          <mxGeometry x="220" y="1344.5" width="560" height="684" as="geometry">
            <mxRectangle x="550" y="140" width="160" height="26" as="alternateBounds" />
          </mxGeometry>
        </mxCell>
        <mxCell id="zkfFHV4jXpPFQw0GAbJ--18" value="- nomeCargoBolsista: string" style="text;align=left;verticalAlign=top;spacingLeft=4;spacingRight=4;overflow=hidden;rotatable=0;points=[[0,0.5],[1,0.5]];portConstraint=eastwest;" parent="zkfFHV4jXpPFQw0GAbJ--17" vertex="1">
          <mxGeometry y="26" width="560" height="26" as="geometry" />
        </mxCell>
        <mxCell id="e4k9r0PAlpyfam_94y2I-0" value="- nomeCargoEstagiÃ¡rio: string" style="text;align=left;verticalAlign=top;spacingLeft=4;spacingRight=4;overflow=hidden;rotatable=0;points=[[0,0.5],[1,0.5]];portConstraint=eastwest;" parent="zkfFHV4jXpPFQw0GAbJ--17" vertex="1">
          <mxGeometry y="52" width="560" height="26" as="geometry" />
        </mxCell>
        <mxCell id="e4k9r0PAlpyfam_94y2I-1" value="- nomeCargoPesquisador: string" style="text;align=left;verticalAlign=top;spacingLeft=4;spacingRight=4;overflow=hidden;rotatable=0;points=[[0,0.5],[1,0.5]];portConstraint=eastwest;" parent="zkfFHV4jXpPFQw0GAbJ--17" vertex="1">
          <mxGeometry y="78" width="560" height="26" as="geometry" />
        </mxCell>
        <mxCell id="e4k9r0PAlpyfam_94y2I-2" value="- pesquisadores: Dictionary&lt;int,int&gt;" style="text;align=left;verticalAlign=top;spacingLeft=4;spacingRight=4;overflow=hidden;rotatable=0;points=[[0,0.5],[1,0.5]];portConstraint=eastwest;" parent="zkfFHV4jXpPFQw0GAbJ--17" vertex="1">
          <mxGeometry y="104" width="560" height="26" as="geometry" />
        </mxCell>
        <mxCell id="e4k9r0PAlpyfam_94y2I-3" value="- despesas: Dictionary&lt;int, decimal&gt;" style="text;align=left;verticalAlign=top;spacingLeft=4;spacingRight=4;overflow=hidden;rotatable=0;points=[[0,0.5],[1,0.5]];portConstraint=eastwest;" parent="zkfFHV4jXpPFQw0GAbJ--17" vertex="1">
          <mxGeometry y="130" width="560" height="26" as="geometry" />
        </mxCell>
        <mxCell id="e4k9r0PAlpyfam_94y2I-4" value="- _cache: DbCache" style="text;align=left;verticalAlign=top;spacingLeft=4;spacingRight=4;overflow=hidden;rotatable=0;points=[[0,0.5],[1,0.5]];portConstraint=eastwest;" parent="zkfFHV4jXpPFQw0GAbJ--17" vertex="1">
          <mxGeometry y="156" width="560" height="26" as="geometry" />
        </mxCell>
        <mxCell id="e4k9r0PAlpyfam_94y2I-5" value="- _context: ApplicationDbContext" style="text;align=left;verticalAlign=top;spacingLeft=4;spacingRight=4;overflow=hidden;rotatable=0;points=[[0,0.5],[1,0.5]];portConstraint=eastwest;" parent="zkfFHV4jXpPFQw0GAbJ--17" vertex="1">
          <mxGeometry y="182" width="560" height="26" as="geometry" />
        </mxCell>
        <mxCell id="e4k9r0PAlpyfam_94y2I-6" value="- _logger: ILogger&lt;ParticipacaoController&gt;" style="text;align=left;verticalAlign=top;spacingLeft=4;spacingRight=4;overflow=hidden;rotatable=0;points=[[0,0.5],[1,0.5]];portConstraint=eastwest;" parent="zkfFHV4jXpPFQw0GAbJ--17" vertex="1">
          <mxGeometry y="208" width="560" height="26" as="geometry" />
        </mxCell>
        <mxCell id="e4k9r0PAlpyfam_94y2I-7" value="- _prospeccoes: List&lt;Prospeccao&gt;" style="text;align=left;verticalAlign=top;spacingLeft=4;spacingRight=4;overflow=hidden;rotatable=0;points=[[0,0.5],[1,0.5]];portConstraint=eastwest;" parent="zkfFHV4jXpPFQw0GAbJ--17" vertex="1">
          <mxGeometry y="234" width="560" height="26" as="geometry" />
        </mxCell>
        <mxCell id="zkfFHV4jXpPFQw0GAbJ--23" value="" style="line;html=1;strokeWidth=1;align=left;verticalAlign=middle;spacingTop=-1;spacingLeft=3;spacingRight=3;rotatable=0;labelPosition=right;points=[];portConstraint=eastwest;" parent="zkfFHV4jXpPFQw0GAbJ--17" vertex="1">
          <mxGeometry y="260" width="560" height="8" as="geometry" />
        </mxCell>
        <mxCell id="e4k9r0PAlpyfam_94y2I-25" value="- ComputarRangeGraficoParticipacao(ParticipacaoTotalViewModel, List&lt;Prospeccao&gt;)" style="text;align=left;verticalAlign=top;spacingLeft=4;spacingRight=4;overflow=hidden;rotatable=0;points=[[0,0.5],[1,0.5]];portConstraint=eastwest;" parent="zkfFHV4jXpPFQw0GAbJ--17" vertex="1">
          <mxGeometry y="268" width="560" height="26" as="geometry" />
        </mxCell>
        <mxCell id="e4k9r0PAlpyfam_94y2I-26" value="- DefinirValoresMinMax(List&lt;ParticipacaoTotalViewModel&gt;)" style="text;align=left;verticalAlign=top;spacingLeft=4;spacingRight=4;overflow=hidden;rotatable=0;points=[[0,0.5],[1,0.5]];portConstraint=eastwest;" parent="zkfFHV4jXpPFQw0GAbJ--17" vertex="1">
          <mxGeometry y="294" width="560" height="26" as="geometry" />
        </mxCell>
        <mxCell id="zkfFHV4jXpPFQw0GAbJ--25" value="+ Index(DateTime?, DateTime?): Task&lt;IActionResult&gt;" style="text;align=left;verticalAlign=top;spacingLeft=4;spacingRight=4;overflow=hidden;rotatable=0;points=[[0,0.5],[1,0.5]];portConstraint=eastwest;" parent="zkfFHV4jXpPFQw0GAbJ--17" vertex="1">
          <mxGeometry y="320" width="560" height="26" as="geometry" />
        </mxCell>
        <mxCell id="e4k9r0PAlpyfam_94y2I-124" value="- ObterIndicadoresFinanceirosParaParticipacao() : Task&lt;List&lt;IndicadoresFinanceirosDTO&gt;&gt;" style="text;align=left;verticalAlign=top;spacingLeft=4;spacingRight=4;overflow=hidden;rotatable=0;points=[[0,0.5],[1,0.5]];portConstraint=eastwest;" parent="zkfFHV4jXpPFQw0GAbJ--17" vertex="1">
          <mxGeometry y="346" width="560" height="26" as="geometry" />
        </mxCell>
        <mxCell id="e4k9r0PAlpyfam_94y2I-9" value="- ObterIndicadoresFinanceirosParaParticipacao() : Task&lt;List&lt;IndicadoresFinanceirosDTO&gt;&gt;" style="text;align=left;verticalAlign=top;spacingLeft=4;spacingRight=4;overflow=hidden;rotatable=0;points=[[0,0.5],[1,0.5]];portConstraint=eastwest;" parent="zkfFHV4jXpPFQw0GAbJ--17" vertex="1">
          <mxGeometry y="372" width="560" height="26" as="geometry" />
        </mxCell>
        <mxCell id="e4k9r0PAlpyfam_94y2I-14" value="- ObterRankingMedioPesquisador(ParticipacaoTotalViewModel, List&lt;ParticipacaoTotalViewModel&gt;)" style="text;align=left;verticalAlign=top;spacingLeft=4;spacingRight=4;overflow=hidden;rotatable=0;points=[[0,0.5],[1,0.5]];portConstraint=eastwest;" parent="zkfFHV4jXpPFQw0GAbJ--17" vertex="1">
          <mxGeometry y="398" width="560" height="26" as="geometry" />
        </mxCell>
        <mxCell id="e4k9r0PAlpyfam_94y2I-10" value="+ ObterRankingParticipacao(ParticipacaoTotalViewModel, string): decimal" style="text;align=left;verticalAlign=top;spacingLeft=4;spacingRight=4;overflow=hidden;rotatable=0;points=[[0,0.5],[1,0.5]];portConstraint=eastwest;" parent="zkfFHV4jXpPFQw0GAbJ--17" vertex="1">
          <mxGeometry y="424" width="560" height="26" as="geometry" />
        </mxCell>
        <mxCell id="e4k9r0PAlpyfam_94y2I-23" value="- ObterRankingsMediosGrafico(List&lt;ParticipacaoTotalViewModel)" style="text;align=left;verticalAlign=top;spacingLeft=4;spacingRight=4;overflow=hidden;rotatable=0;points=[[0,0.5],[1,0.5]];portConstraint=eastwest;" parent="zkfFHV4jXpPFQw0GAbJ--17" vertex="1">
          <mxGeometry y="450" width="560" height="26" as="geometry" />
        </mxCell>
        <mxCell id="e4k9r0PAlpyfam_94y2I-13" value="- ObterProspeccoesParaParticipacao(): Task&lt;List&lt;Prospeccao&gt;&gt;" style="text;align=left;verticalAlign=top;spacingLeft=4;spacingRight=4;overflow=hidden;rotatable=0;points=[[0,0.5],[1,0.5]];portConstraint=eastwest;" parent="zkfFHV4jXpPFQw0GAbJ--17" vertex="1">
          <mxGeometry y="476" width="560" height="26" as="geometry" />
        </mxCell>
        <mxCell id="e4k9r0PAlpyfam_94y2I-31" value="- ObterProspeccoesUsuario(Usuario): ProspeccoesUsuarioParticipacao " style="text;align=left;verticalAlign=top;spacingLeft=4;spacingRight=4;overflow=hidden;rotatable=0;points=[[0,0.5],[1,0.5]];portConstraint=eastwest;" parent="zkfFHV4jXpPFQw0GAbJ--17" vertex="1">
          <mxGeometry y="502" width="560" height="26" as="geometry" />
        </mxCell>
        <mxCell id="e4k9r0PAlpyfam_94y2I-29" value="- PeriodizarProspeccoesUsuario(ProspeccoesUsuarioParticipacao, DateTime, DateTime)" style="text;align=left;verticalAlign=top;spacingLeft=4;spacingRight=4;overflow=hidden;rotatable=0;points=[[0,0.5],[1,0.5]];portConstraint=eastwest;" parent="zkfFHV4jXpPFQw0GAbJ--17" vertex="1">
          <mxGeometry y="528" width="560" height="26" as="geometry" />
        </mxCell>
        <mxCell id="e4k9r0PAlpyfam_94y2I-38" value="- PrepararDadosParticipacao(List&lt;ParticipacaoTotalViewModel&gt;): List&lt;ParticipacaoTotalViewModel&gt;" style="text;align=left;verticalAlign=top;spacingLeft=4;spacingRight=4;overflow=hidden;rotatable=0;points=[[0,0.5],[1,0.5]];portConstraint=eastwest;" parent="zkfFHV4jXpPFQw0GAbJ--17" vertex="1">
          <mxGeometry y="554" width="560" height="26" as="geometry" />
        </mxCell>
        <mxCell id="e4k9r0PAlpyfam_94y2I-18" value="- RankearParticipacoes(List&lt;ParticipacaoTotalViewModel&gt;, bool)" style="text;align=left;verticalAlign=top;spacingLeft=4;spacingRight=4;overflow=hidden;rotatable=0;points=[[0,0.5],[1,0.5]];portConstraint=eastwest;" parent="zkfFHV4jXpPFQw0GAbJ--17" vertex="1">
          <mxGeometry y="580" width="560" height="26" as="geometry" />
        </mxCell>
        <mxCell id="e4k9r0PAlpyfam_94y2I-11" value="+ RetornarDadosGraficoTemporal(string, DateTime?, DateTime?): Task&lt;IActionResult&gt;" style="text;align=left;verticalAlign=top;spacingLeft=4;spacingRight=4;overflow=hidden;rotatable=0;points=[[0,0.5],[1,0.5]];portConstraint=eastwest;" parent="zkfFHV4jXpPFQw0GAbJ--17" vertex="1">
          <mxGeometry y="606" width="560" height="26" as="geometry" />
        </mxCell>
        <mxCell id="e4k9r0PAlpyfam_94y2I-8" value="+ RetornarDadosIndicador(string, DateTime?, DateTime?): Task&lt;IActionResult&gt;" style="text;align=left;verticalAlign=top;spacingLeft=4;spacingRight=4;overflow=hidden;rotatable=0;points=[[0,0.5],[1,0.5]];portConstraint=eastwest;" parent="zkfFHV4jXpPFQw0GAbJ--17" vertex="1">
          <mxGeometry y="632" width="560" height="26" as="geometry" />
        </mxCell>
        <mxCell id="e4k9r0PAlpyfam_94y2I-24" value="+ RetornarDadosGrafico(): Task&lt;IActionResult&gt;" style="text;align=left;verticalAlign=top;spacingLeft=4;spacingRight=4;overflow=hidden;rotatable=0;points=[[0,0.5],[1,0.5]];portConstraint=eastwest;" parent="zkfFHV4jXpPFQw0GAbJ--17" vertex="1">
          <mxGeometry y="658" width="560" height="26" as="geometry" />
        </mxCell>
        <mxCell id="e4k9r0PAlpyfam_94y2I-39" value="CalculosParticipacao" style="swimlane;fontStyle=1;align=center;verticalAlign=top;childLayout=stackLayout;horizontal=1;startSize=26;horizontalStack=0;resizeParent=1;resizeLast=0;collapsible=1;marginBottom=0;rounded=0;shadow=0;strokeWidth=1;" parent="WIyWlLk6GJQsqaUBKTNV-1" vertex="1">
          <mxGeometry x="220" y="342.5" width="560" height="275" as="geometry">
            <mxRectangle x="550" y="140" width="160" height="26" as="alternateBounds" />
          </mxGeometry>
        </mxCell>
        <mxCell id="e4k9r0PAlpyfam_94y2I-40" value="- nomeCargoBolsista: string" style="text;align=left;verticalAlign=top;spacingLeft=4;spacingRight=4;overflow=hidden;rotatable=0;points=[[0,0.5],[1,0.5]];portConstraint=eastwest;" parent="e4k9r0PAlpyfam_94y2I-39" vertex="1">
          <mxGeometry y="26" width="560" height="26" as="geometry" />
        </mxCell>
        <mxCell id="e4k9r0PAlpyfam_94y2I-41" value="- nomeCargoEstagiÃ¡rio: string" style="text;align=left;verticalAlign=top;spacingLeft=4;spacingRight=4;overflow=hidden;rotatable=0;points=[[0,0.5],[1,0.5]];portConstraint=eastwest;" parent="e4k9r0PAlpyfam_94y2I-39" vertex="1">
          <mxGeometry y="52" width="560" height="26" as="geometry" />
        </mxCell>
        <mxCell id="e4k9r0PAlpyfam_94y2I-42" value="- nomeCargoPesquisador: string" style="text;align=left;verticalAlign=top;spacingLeft=4;spacingRight=4;overflow=hidden;rotatable=0;points=[[0,0.5],[1,0.5]];portConstraint=eastwest;" parent="e4k9r0PAlpyfam_94y2I-39" vertex="1">
          <mxGeometry y="78" width="560" height="26" as="geometry" />
        </mxCell>
        <mxCell id="e4k9r0PAlpyfam_94y2I-49" value="" style="line;html=1;strokeWidth=1;align=left;verticalAlign=middle;spacingTop=-1;spacingLeft=3;spacingRight=3;rotatable=0;labelPosition=right;points=[];portConstraint=eastwest;" parent="e4k9r0PAlpyfam_94y2I-39" vertex="1">
          <mxGeometry y="104" width="560" height="8" as="geometry" />
        </mxCell>
        <mxCell id="e4k9r0PAlpyfam_94y2I-50" value="- AcertarPrecificacaoProjetos(DateTime, DateTime, List&lt;Projeto&gt;): List&lt;Projeto&gt;" style="text;align=left;verticalAlign=top;spacingLeft=4;spacingRight=4;overflow=hidden;rotatable=0;points=[[0,0.5],[1,0.5]];portConstraint=eastwest;" parent="e4k9r0PAlpyfam_94y2I-39" vertex="1">
          <mxGeometry y="112" width="560" height="26" as="geometry" />
        </mxCell>
        <mxCell id="e4k9r0PAlpyfam_94y2I-57" value="- ExtrairValorProjetos(Usuario, DateTime, DateTime): Task&lt;decimal&gt;" style="text;align=left;verticalAlign=top;spacingLeft=4;spacingRight=4;overflow=hidden;rotatable=0;points=[[0,0.5],[1,0.5]];portConstraint=eastwest;" parent="e4k9r0PAlpyfam_94y2I-39" vertex="1">
          <mxGeometry y="138" width="560" height="26" as="geometry" />
        </mxCell>
        <mxCell id="e4k9r0PAlpyfam_94y2I-58" value="- ExtrairValorProspeccoes(List&lt;Prospeccao&gt;, Usuario): decimal" style="text;align=left;verticalAlign=top;spacingLeft=4;spacingRight=4;overflow=hidden;rotatable=0;points=[[0,0.5],[1,0.5]];portConstraint=eastwest;" parent="e4k9r0PAlpyfam_94y2I-39" vertex="1">
          <mxGeometry y="164" width="560" height="26" as="geometry" />
        </mxCell>
        <mxCell id="e4k9r0PAlpyfam_94y2I-68" value="- ObterRankingMedioPesquisador(ParticipacaoTotalViewModel, List&lt;ParticipacaoTotalViewModel&gt;)" style="text;align=left;verticalAlign=top;spacingLeft=4;spacingRight=4;overflow=hidden;rotatable=0;points=[[0,0.5],[1,0.5]];portConstraint=eastwest;" parent="e4k9r0PAlpyfam_94y2I-39" vertex="1">
          <mxGeometry y="190" width="560" height="26" as="geometry" />
        </mxCell>
        <mxCell id="e4k9r0PAlpyfam_94y2I-76" value="- ReatribuirValorProjeto(Projeto, DateTime, DateTime?)" style="text;align=left;verticalAlign=top;spacingLeft=4;spacingRight=4;overflow=hidden;rotatable=0;points=[[0,0.5],[1,0.5]];portConstraint=eastwest;" parent="e4k9r0PAlpyfam_94y2I-39" vertex="1">
          <mxGeometry y="216" width="560" height="26" as="geometry" />
        </mxCell>
        <mxCell id="e4k9r0PAlpyfam_94y2I-77" value="- ReatribuirValorProjeto(DateTime, Projeto)" style="text;align=left;verticalAlign=top;spacingLeft=4;spacingRight=4;overflow=hidden;rotatable=0;points=[[0,0.5],[1,0.5]];portConstraint=eastwest;" parent="e4k9r0PAlpyfam_94y2I-39" vertex="1">
          <mxGeometry y="242" width="560" height="26" as="geometry" />
        </mxCell>
        <mxCell id="e4k9r0PAlpyfam_94y2I-82" value="ConstrutorParticipacao" style="swimlane;fontStyle=1;align=center;verticalAlign=top;childLayout=stackLayout;horizontal=1;startSize=26;horizontalStack=0;resizeParent=1;resizeLast=0;collapsible=1;marginBottom=0;rounded=0;shadow=0;strokeWidth=1;" parent="WIyWlLk6GJQsqaUBKTNV-1" vertex="1">
          <mxGeometry x="-600" y="320" width="720" height="320" as="geometry">
            <mxRectangle x="550" y="140" width="160" height="26" as="alternateBounds" />
          </mxGeometry>
        </mxCell>
        <mxCell id="e4k9r0PAlpyfam_94y2I-83" value="- nomeCargoBolsista: string" style="text;align=left;verticalAlign=top;spacingLeft=4;spacingRight=4;overflow=hidden;rotatable=0;points=[[0,0.5],[1,0.5]];portConstraint=eastwest;" parent="e4k9r0PAlpyfam_94y2I-82" vertex="1">
          <mxGeometry y="26" width="720" height="26" as="geometry" />
        </mxCell>
        <mxCell id="e4k9r0PAlpyfam_94y2I-84" value="- nomeCargoEstagiÃ¡rio: string" style="text;align=left;verticalAlign=top;spacingLeft=4;spacingRight=4;overflow=hidden;rotatable=0;points=[[0,0.5],[1,0.5]];portConstraint=eastwest;" parent="e4k9r0PAlpyfam_94y2I-82" vertex="1">
          <mxGeometry y="52" width="720" height="26" as="geometry" />
        </mxCell>
        <mxCell id="e4k9r0PAlpyfam_94y2I-85" value="- nomeCargoPesquisador: string" style="text;align=left;verticalAlign=top;spacingLeft=4;spacingRight=4;overflow=hidden;rotatable=0;points=[[0,0.5],[1,0.5]];portConstraint=eastwest;" parent="e4k9r0PAlpyfam_94y2I-82" vertex="1">
          <mxGeometry y="78" width="720" height="26" as="geometry" />
        </mxCell>
        <mxCell id="e4k9r0PAlpyfam_94y2I-87" value="- despesas: Dictionary&lt;int, decimal&gt;" style="text;align=left;verticalAlign=top;spacingLeft=4;spacingRight=4;overflow=hidden;rotatable=0;points=[[0,0.5],[1,0.5]];portConstraint=eastwest;" parent="e4k9r0PAlpyfam_94y2I-82" vertex="1">
          <mxGeometry y="104" width="720" height="26" as="geometry" />
        </mxCell>
        <mxCell id="e4k9r0PAlpyfam_94y2I-89" value="- _context: ApplicationDbContext" style="text;align=left;verticalAlign=top;spacingLeft=4;spacingRight=4;overflow=hidden;rotatable=0;points=[[0,0.5],[1,0.5]];portConstraint=eastwest;" parent="e4k9r0PAlpyfam_94y2I-82" vertex="1">
          <mxGeometry y="130" width="720" height="26" as="geometry" />
        </mxCell>
        <mxCell id="e4k9r0PAlpyfam_94y2I-92" value="" style="line;html=1;strokeWidth=1;align=left;verticalAlign=middle;spacingTop=-1;spacingLeft=3;spacingRight=3;rotatable=0;labelPosition=right;points=[];portConstraint=eastwest;" parent="e4k9r0PAlpyfam_94y2I-82" vertex="1">
          <mxGeometry y="156" width="720" height="8" as="geometry" />
        </mxCell>
        <mxCell id="e4k9r0PAlpyfam_94y2I-93" value="- AtribuirAssertividadePrecificacao(Usuario, DateTime, DateTime, ParticipacaoTotalViewModel, ProspeccoesUsuarioParticipacao) : Task" style="text;align=left;verticalAlign=top;spacingLeft=4;spacingRight=4;overflow=hidden;rotatable=0;points=[[0,0.5],[1,0.5]];portConstraint=eastwest;" parent="e4k9r0PAlpyfam_94y2I-82" vertex="1">
          <mxGeometry y="164" width="720" height="32" as="geometry" />
        </mxCell>
        <mxCell id="e4k9r0PAlpyfam_94y2I-94" value="- AtribuirParticipacoesIndividuais(ParticipacaoTotalViewModel, List&lt;Prospeccao&gt;): Task" style="text;align=left;verticalAlign=top;spacingLeft=4;spacingRight=4;overflow=hidden;rotatable=0;points=[[0,0.5],[1,0.5]];portConstraint=eastwest;" parent="e4k9r0PAlpyfam_94y2I-82" vertex="1">
          <mxGeometry y="196" width="720" height="26" as="geometry" />
        </mxCell>
        <mxCell id="e4k9r0PAlpyfam_94y2I-95" value="- AtribuirQuantidadesDeProspeccao(Usuario,ParticipacaoTotalViewModel, ProspeccoesUsuarioParticipacao): void" style="text;align=left;verticalAlign=top;spacingLeft=4;spacingRight=4;overflow=hidden;rotatable=0;points=[[0,0.5],[1,0.5]];portConstraint=eastwest;" parent="e4k9r0PAlpyfam_94y2I-82" vertex="1">
          <mxGeometry y="222" width="720" height="26" as="geometry" />
        </mxCell>
        <mxCell id="e4k9r0PAlpyfam_94y2I-96" value="- AtribuirValoresFinanceirosDeProspeccao(Usuario, ParticipacaoTotalViewModel, ProspeccoesUsuarioParticipacao): void" style="text;align=left;verticalAlign=top;spacingLeft=4;spacingRight=4;overflow=hidden;rotatable=0;points=[[0,0.5],[1,0.5]];portConstraint=eastwest;" parent="e4k9r0PAlpyfam_94y2I-82" vertex="1">
          <mxGeometry y="248" width="720" height="26" as="geometry" />
        </mxCell>
        <mxCell id="e4k9r0PAlpyfam_94y2I-107" value="- ObterIndicadoresFinanceirosParaParticipacao() : Task&lt;List&lt;IndicadoresFinanceirosDTO&gt;&gt;" style="text;align=left;verticalAlign=top;spacingLeft=4;spacingRight=4;overflow=hidden;rotatable=0;points=[[0,0.5],[1,0.5]];portConstraint=eastwest;" parent="e4k9r0PAlpyfam_94y2I-82" vertex="1">
          <mxGeometry y="274" width="720" height="26" as="geometry" />
        </mxCell>
        <mxCell id="e4k9r0PAlpyfam_94y2I-125" value="ParticipacaoHelper" style="swimlane;fontStyle=1;align=center;verticalAlign=top;childLayout=stackLayout;horizontal=1;startSize=26;horizontalStack=0;resizeParent=1;resizeLast=0;collapsible=1;marginBottom=0;rounded=0;shadow=0;strokeWidth=1;" parent="WIyWlLk6GJQsqaUBKTNV-1" vertex="1">
          <mxGeometry x="220" y="900" width="560" height="160" as="geometry">
            <mxRectangle x="550" y="140" width="160" height="26" as="alternateBounds" />
          </mxGeometry>
        </mxCell>
        <mxCell id="e4k9r0PAlpyfam_94y2I-135" value="" style="line;html=1;strokeWidth=1;align=left;verticalAlign=middle;spacingTop=-1;spacingLeft=3;spacingRight=3;rotatable=0;labelPosition=right;points=[];portConstraint=eastwest;" parent="e4k9r0PAlpyfam_94y2I-125" vertex="1">
          <mxGeometry y="26" width="560" height="8" as="geometry" />
        </mxCell>
        <mxCell id="e4k9r0PAlpyfam_94y2I-136" value="- FiltrarProspeccoesPorPeriodo(DateTime, DateTime, List&lt;Prospeccao&gt;): List&lt;Prospeccao&gt;" style="text;align=left;verticalAlign=top;spacingLeft=4;spacingRight=4;overflow=hidden;rotatable=0;points=[[0,0.5],[1,0.5]];portConstraint=eastwest;" parent="e4k9r0PAlpyfam_94y2I-125" vertex="1">
          <mxGeometry y="34" width="560" height="26" as="geometry" />
        </mxCell>
        <mxCell id="e4k9r0PAlpyfam_94y2I-141" value="- FiltrarProspeccoesComProposta(List&lt;Prospeccao&gt;): List&lt;Prospeccao&gt;" style="text;align=left;verticalAlign=top;spacingLeft=4;spacingRight=4;overflow=hidden;rotatable=0;points=[[0,0.5],[1,0.5]];portConstraint=eastwest;" parent="e4k9r0PAlpyfam_94y2I-125" vertex="1">
          <mxGeometry y="60" width="560" height="26" as="geometry" />
        </mxCell>
        <mxCell id="e4k9r0PAlpyfam_94y2I-142" value="- FiltrarProspeccoesConvertidas(List&lt;Prospeccao&gt;): List&lt;Prospeccao&gt;" style="text;align=left;verticalAlign=top;spacingLeft=4;spacingRight=4;overflow=hidden;rotatable=0;points=[[0,0.5],[1,0.5]];portConstraint=eastwest;" parent="e4k9r0PAlpyfam_94y2I-125" vertex="1">
          <mxGeometry y="86" width="560" height="26" as="geometry" />
        </mxCell>
        <mxCell id="e4k9r0PAlpyfam_94y2I-143" value="- PeriodizarProspeccoesUsuario(ProspeccoesUsuarioParticipacao, DateTime, DateTime): void" style="text;align=left;verticalAlign=top;spacingLeft=4;spacingRight=4;overflow=hidden;rotatable=0;points=[[0,0.5],[1,0.5]];portConstraint=eastwest;" parent="e4k9r0PAlpyfam_94y2I-125" vertex="1">
          <mxGeometry y="112" width="560" height="26" as="geometry" />
        </mxCell>
        <mxCell id="e4k9r0PAlpyfam_94y2I-170" style="edgeStyle=orthogonalEdgeStyle;rounded=0;orthogonalLoop=1;jettySize=auto;html=1;dashed=1;endArrow=open;endFill=0;" parent="WIyWlLk6GJQsqaUBKTNV-1" source="e4k9r0PAlpyfam_94y2I-144" target="e4k9r0PAlpyfam_94y2I-169" edge="1">
          <mxGeometry relative="1" as="geometry" />
        </mxCell>
        <mxCell id="e4k9r0PAlpyfam_94y2I-171" value="Implements" style="edgeLabel;html=1;align=center;verticalAlign=middle;resizable=0;points=[];" parent="e4k9r0PAlpyfam_94y2I-170" vertex="1" connectable="0">
          <mxGeometry x="0.0364" y="-1" relative="1" as="geometry">
            <mxPoint as="offset" />
          </mxGeometry>
        </mxCell>
        <mxCell id="e4k9r0PAlpyfam_94y2I-144" value="AdministradorDadosParticipacao" style="swimlane;fontStyle=1;align=center;verticalAlign=top;childLayout=stackLayout;horizontal=1;startSize=26;horizontalStack=0;resizeParent=1;resizeParentMax=0;resizeLast=0;collapsible=1;marginBottom=0;whiteSpace=wrap;html=1;" parent="WIyWlLk6GJQsqaUBKTNV-1" vertex="1">
          <mxGeometry x="-420" y="730" width="360" height="500" as="geometry" />
        </mxCell>
        <mxCell id="e4k9r0PAlpyfam_94y2I-145" value="- _context: ApplicationDbContext" style="text;strokeColor=none;fillColor=none;align=left;verticalAlign=top;spacingLeft=4;spacingRight=4;overflow=hidden;rotatable=0;points=[[0,0.5],[1,0.5]];portConstraint=eastwest;whiteSpace=wrap;html=1;" parent="e4k9r0PAlpyfam_94y2I-144" vertex="1">
          <mxGeometry y="26" width="360" height="26" as="geometry" />
        </mxCell>
        <mxCell id="e4k9r0PAlpyfam_94y2I-148" value="- _cache: DbCache" style="text;strokeColor=none;fillColor=none;align=left;verticalAlign=top;spacingLeft=4;spacingRight=4;overflow=hidden;rotatable=0;points=[[0,0.5],[1,0.5]];portConstraint=eastwest;whiteSpace=wrap;html=1;" parent="e4k9r0PAlpyfam_94y2I-144" vertex="1">
          <mxGeometry y="52" width="360" height="26" as="geometry" />
        </mxCell>
        <mxCell id="e4k9r0PAlpyfam_94y2I-149" value="- _construtorParticipacao: IConstrutorParticipacao" style="text;strokeColor=none;fillColor=none;align=left;verticalAlign=top;spacingLeft=4;spacingRight=4;overflow=hidden;rotatable=0;points=[[0,0.5],[1,0.5]];portConstraint=eastwest;whiteSpace=wrap;html=1;" parent="e4k9r0PAlpyfam_94y2I-144" vertex="1">
          <mxGeometry y="78" width="360" height="26" as="geometry" />
        </mxCell>
        <mxCell id="e4k9r0PAlpyfam_94y2I-150" value="- nomeCargoBolsista: string" style="text;strokeColor=none;fillColor=none;align=left;verticalAlign=top;spacingLeft=4;spacingRight=4;overflow=hidden;rotatable=0;points=[[0,0.5],[1,0.5]];portConstraint=eastwest;whiteSpace=wrap;html=1;" parent="e4k9r0PAlpyfam_94y2I-144" vertex="1">
          <mxGeometry y="104" width="360" height="26" as="geometry" />
        </mxCell>
        <mxCell id="e4k9r0PAlpyfam_94y2I-151" value="- nomeCargoPesquisador: string" style="text;strokeColor=none;fillColor=none;align=left;verticalAlign=top;spacingLeft=4;spacingRight=4;overflow=hidden;rotatable=0;points=[[0,0.5],[1,0.5]];portConstraint=eastwest;whiteSpace=wrap;html=1;" parent="e4k9r0PAlpyfam_94y2I-144" vertex="1">
          <mxGeometry y="130" width="360" height="26" as="geometry" />
        </mxCell>
        <mxCell id="e4k9r0PAlpyfam_94y2I-152" value="- nomeCargoEstagiÃ¡rio: string" style="text;strokeColor=none;fillColor=none;align=left;verticalAlign=top;spacingLeft=4;spacingRight=4;overflow=hidden;rotatable=0;points=[[0,0.5],[1,0.5]];portConstraint=eastwest;whiteSpace=wrap;html=1;" parent="e4k9r0PAlpyfam_94y2I-144" vertex="1">
          <mxGeometry y="156" width="360" height="26" as="geometry" />
        </mxCell>
        <mxCell id="e4k9r0PAlpyfam_94y2I-146" value="" style="line;strokeWidth=1;fillColor=none;align=left;verticalAlign=middle;spacingTop=-1;spacingLeft=3;spacingRight=3;rotatable=0;labelPosition=right;points=[];portConstraint=eastwest;strokeColor=inherit;" parent="e4k9r0PAlpyfam_94y2I-144" vertex="1">
          <mxGeometry y="182" width="360" height="8" as="geometry" />
        </mxCell>
        <mxCell id="e4k9r0PAlpyfam_94y2I-155" value="&lt;div&gt;+ ObterProspeccoesUsuario(Usuario): ProspeccoesUsuarioParticipacao&lt;br&gt;&lt;/div&gt;" style="text;strokeColor=none;fillColor=none;align=left;verticalAlign=top;spacingLeft=4;spacingRight=4;overflow=hidden;rotatable=0;points=[[0,0.5],[1,0.5]];portConstraint=eastwest;whiteSpace=wrap;html=1;" parent="e4k9r0PAlpyfam_94y2I-144" vertex="1">
          <mxGeometry y="190" width="360" height="40" as="geometry" />
        </mxCell>
        <mxCell id="e4k9r0PAlpyfam_94y2I-147" value="+ GetProspeccoesUsuarioLider(Usuario): List&amp;lt;Prospeccao&amp;gt;" style="text;strokeColor=none;fillColor=none;align=left;verticalAlign=top;spacingLeft=4;spacingRight=4;overflow=hidden;rotatable=0;points=[[0,0.5],[1,0.5]];portConstraint=eastwest;whiteSpace=wrap;html=1;" parent="e4k9r0PAlpyfam_94y2I-144" vertex="1">
          <mxGeometry y="230" width="360" height="26" as="geometry" />
        </mxCell>
        <mxCell id="e4k9r0PAlpyfam_94y2I-153" value="+ GetProspeccoesUsuarioMembro(Usuario): List&amp;lt;Prospeccao&amp;gt;" style="text;strokeColor=none;fillColor=none;align=left;verticalAlign=top;spacingLeft=4;spacingRight=4;overflow=hidden;rotatable=0;points=[[0,0.5],[1,0.5]];portConstraint=eastwest;whiteSpace=wrap;html=1;" parent="e4k9r0PAlpyfam_94y2I-144" vertex="1">
          <mxGeometry y="256" width="360" height="26" as="geometry" />
        </mxCell>
        <mxCell id="e4k9r0PAlpyfam_94y2I-154" value="&lt;div&gt;+ GetProspeccoesUsuarioMembroEquipe(Usuario): List&amp;lt;Prospeccao&amp;gt;&lt;/div&gt;" style="text;strokeColor=none;fillColor=none;align=left;verticalAlign=top;spacingLeft=4;spacingRight=4;overflow=hidden;rotatable=0;points=[[0,0.5],[1,0.5]];portConstraint=eastwest;whiteSpace=wrap;html=1;" parent="e4k9r0PAlpyfam_94y2I-144" vertex="1">
          <mxGeometry y="282" width="360" height="38" as="geometry" />
        </mxCell>
        <mxCell id="e4k9r0PAlpyfam_94y2I-160" value="+ GetParticipacaoTotalUsuario(Usuario, DateTime, DateTime)" style="text;strokeColor=none;fillColor=none;align=left;verticalAlign=top;spacingLeft=4;spacingRight=4;overflow=hidden;rotatable=0;points=[[0,0.5],[1,0.5]];portConstraint=eastwest;whiteSpace=wrap;html=1;" parent="e4k9r0PAlpyfam_94y2I-144" vertex="1">
          <mxGeometry y="320" width="360" height="30" as="geometry" />
        </mxCell>
        <mxCell id="e4k9r0PAlpyfam_94y2I-156" value="&lt;div&gt;+ GetParticipacoesTotaisUsuarios(Usuario, DateTime, DateTime)&lt;/div&gt;" style="text;strokeColor=none;fillColor=none;align=left;verticalAlign=top;spacingLeft=4;spacingRight=4;overflow=hidden;rotatable=0;points=[[0,0.5],[1,0.5]];portConstraint=eastwest;whiteSpace=wrap;html=1;" parent="e4k9r0PAlpyfam_94y2I-144" vertex="1">
          <mxGeometry y="350" width="360" height="40" as="geometry" />
        </mxCell>
        <mxCell id="e4k9r0PAlpyfam_94y2I-157" value="+ ObterProspeccoesUsuario(Usuario)" style="text;strokeColor=none;fillColor=none;align=left;verticalAlign=top;spacingLeft=4;spacingRight=4;overflow=hidden;rotatable=0;points=[[0,0.5],[1,0.5]];portConstraint=eastwest;whiteSpace=wrap;html=1;" parent="e4k9r0PAlpyfam_94y2I-144" vertex="1">
          <mxGeometry y="390" width="360" height="30" as="geometry" />
        </mxCell>
        <mxCell id="e4k9r0PAlpyfam_94y2I-158" value="+ GetParticipacoesTotaisUsuarios(Usuario, DateTime, DateTime): Task&amp;lt;List&amp;lt;ParticipacaoTotalViewModel&amp;gt;&amp;gt;" style="text;strokeColor=none;fillColor=none;align=left;verticalAlign=top;spacingLeft=4;spacingRight=4;overflow=hidden;rotatable=0;points=[[0,0.5],[1,0.5]];portConstraint=eastwest;whiteSpace=wrap;html=1;" parent="e4k9r0PAlpyfam_94y2I-144" vertex="1">
          <mxGeometry y="420" width="360" height="40" as="geometry" />
        </mxCell>
        <mxCell id="e4k9r0PAlpyfam_94y2I-159" value="+ ObterProspeccoesParaParticipacao(): Task&amp;lt;List&amp;lt;Prospeccao&amp;gt;&amp;gt;" style="text;strokeColor=none;fillColor=none;align=left;verticalAlign=top;spacingLeft=4;spacingRight=4;overflow=hidden;rotatable=0;points=[[0,0.5],[1,0.5]];portConstraint=eastwest;whiteSpace=wrap;html=1;" parent="e4k9r0PAlpyfam_94y2I-144" vertex="1">
          <mxGeometry y="460" width="360" height="40" as="geometry" />
        </mxCell>
        <mxCell id="e4k9r0PAlpyfam_94y2I-162" value="" style="endArrow=diamondThin;endFill=0;endSize=24;html=1;rounded=0;" parent="WIyWlLk6GJQsqaUBKTNV-1" source="e4k9r0PAlpyfam_94y2I-82" target="e4k9r0PAlpyfam_94y2I-144" edge="1">
          <mxGeometry width="160" relative="1" as="geometry">
            <mxPoint x="-270" y="650" as="sourcePoint" />
            <mxPoint x="-110" y="650" as="targetPoint" />
          </mxGeometry>
        </mxCell>
        <mxCell id="e4k9r0PAlpyfam_94y2I-164" value="" style="endArrow=diamondThin;endFill=0;endSize=24;html=1;rounded=0;" parent="WIyWlLk6GJQsqaUBKTNV-1" source="e4k9r0PAlpyfam_94y2I-125" target="zkfFHV4jXpPFQw0GAbJ--17" edge="1">
          <mxGeometry width="160" relative="1" as="geometry">
            <mxPoint x="30" y="950" as="sourcePoint" />
            <mxPoint x="190" y="950" as="targetPoint" />
          </mxGeometry>
        </mxCell>
        <mxCell id="e4k9r0PAlpyfam_94y2I-165" value="" style="endArrow=diamondThin;endFill=0;endSize=24;html=1;rounded=0;" parent="WIyWlLk6GJQsqaUBKTNV-1" source="e4k9r0PAlpyfam_94y2I-39" target="e4k9r0PAlpyfam_94y2I-82" edge="1">
          <mxGeometry width="160" relative="1" as="geometry">
            <mxPoint x="-230" y="650" as="sourcePoint" />
            <mxPoint x="-230" y="740" as="targetPoint" />
          </mxGeometry>
        </mxCell>
        <mxCell id="e4k9r0PAlpyfam_94y2I-166" value="" style="endArrow=diamondThin;endFill=0;endSize=24;html=1;rounded=0;" parent="WIyWlLk6GJQsqaUBKTNV-1" source="e4k9r0PAlpyfam_94y2I-125" target="e4k9r0PAlpyfam_94y2I-144" edge="1">
          <mxGeometry width="160" relative="1" as="geometry">
            <mxPoint x="-230" y="650" as="sourcePoint" />
            <mxPoint x="-230" y="740" as="targetPoint" />
          </mxGeometry>
        </mxCell>
        <mxCell id="e4k9r0PAlpyfam_94y2I-167" value="Â«interfaceÂ»&lt;br&gt;&lt;b&gt;IConstrutorParticipacao&lt;/b&gt;" style="html=1;whiteSpace=wrap;" parent="WIyWlLk6GJQsqaUBKTNV-1" vertex="1">
          <mxGeometry x="-347.5" y="110" width="215" height="50" as="geometry" />
        </mxCell>
        <mxCell id="e4k9r0PAlpyfam_94y2I-168" value="" style="endArrow=block;dashed=1;endFill=0;endSize=12;html=1;rounded=0;" parent="WIyWlLk6GJQsqaUBKTNV-1" source="e4k9r0PAlpyfam_94y2I-82" target="e4k9r0PAlpyfam_94y2I-167" edge="1">
          <mxGeometry width="160" relative="1" as="geometry">
            <mxPoint x="-130" y="280" as="sourcePoint" />
            <mxPoint x="30" y="280" as="targetPoint" />
          </mxGeometry>
        </mxCell>
        <mxCell id="e4k9r0PAlpyfam_94y2I-172" value="Implements" style="edgeLabel;html=1;align=center;verticalAlign=middle;resizable=0;points=[];" parent="e4k9r0PAlpyfam_94y2I-168" vertex="1" connectable="0">
          <mxGeometry x="-0.1625" y="2" relative="1" as="geometry">
            <mxPoint as="offset" />
          </mxGeometry>
        </mxCell>
        <mxCell id="e4k9r0PAlpyfam_94y2I-169" value="Â«interfaceÂ»&lt;br&gt;&lt;b&gt;IAdministradorDadosParticipacao&lt;/b&gt;" style="html=1;whiteSpace=wrap;" parent="WIyWlLk6GJQsqaUBKTNV-1" vertex="1">
          <mxGeometry x="-800" y="955" width="230" height="50" as="geometry" />
        </mxCell>
        <mxCell id="FD8P4zI6O13hWfLaP9B8-0" value="ParticipacaoTotalViewModel" style="swimlane;fontStyle=1;align=center;verticalAlign=top;childLayout=stackLayout;horizontal=1;startSize=26;horizontalStack=0;resizeParent=1;resizeParentMax=0;resizeLast=0;collapsible=1;marginBottom=0;whiteSpace=wrap;html=1;" vertex="1" parent="WIyWlLk6GJQsqaUBKTNV-1">
          <mxGeometry x="-370" y="1320" width="260" height="733" as="geometry" />
        </mxCell>
        <mxCell id="FD8P4zI6O13hWfLaP9B8-1" value="+ Lider: UsuarioParticipacaoDTO" style="text;strokeColor=none;fillColor=none;align=left;verticalAlign=top;spacingLeft=4;spacingRight=4;overflow=hidden;rotatable=0;points=[[0,0.5],[1,0.5]];portConstraint=eastwest;whiteSpace=wrap;html=1;" vertex="1" parent="FD8P4zI6O13hWfLaP9B8-0">
          <mxGeometry y="26" width="260" height="26" as="geometry" />
        </mxCell>
        <mxCell id="FD8P4zI6O13hWfLaP9B8-4" value="+ ValorTotalProspeccoes: decimal" style="text;strokeColor=none;fillColor=none;align=left;verticalAlign=top;spacingLeft=4;spacingRight=4;overflow=hidden;rotatable=0;points=[[0,0.5],[1,0.5]];portConstraint=eastwest;whiteSpace=wrap;html=1;" vertex="1" parent="FD8P4zI6O13hWfLaP9B8-0">
          <mxGeometry y="52" width="260" height="26" as="geometry" />
        </mxCell>
        <mxCell id="FD8P4zI6O13hWfLaP9B8-5" value="&lt;div&gt;+ ValorMedioProspeccoes: decimal&lt;/div&gt;" style="text;strokeColor=none;fillColor=none;align=left;verticalAlign=top;spacingLeft=4;spacingRight=4;overflow=hidden;rotatable=0;points=[[0,0.5],[1,0.5]];portConstraint=eastwest;whiteSpace=wrap;html=1;" vertex="1" parent="FD8P4zI6O13hWfLaP9B8-0">
          <mxGeometry y="78" width="260" height="26" as="geometry" />
        </mxCell>
        <mxCell id="FD8P4zI6O13hWfLaP9B8-6" value="+ QuantidadeProspeccoes: int" style="text;strokeColor=none;fillColor=none;align=left;verticalAlign=top;spacingLeft=4;spacingRight=4;overflow=hidden;rotatable=0;points=[[0,0.5],[1,0.5]];portConstraint=eastwest;whiteSpace=wrap;html=1;" vertex="1" parent="FD8P4zI6O13hWfLaP9B8-0">
          <mxGeometry y="104" width="260" height="26" as="geometry" />
        </mxCell>
        <mxCell id="FD8P4zI6O13hWfLaP9B8-7" value="+ QuantidadeProspeccoesLider: int" style="text;strokeColor=none;fillColor=none;align=left;verticalAlign=top;spacingLeft=4;spacingRight=4;overflow=hidden;rotatable=0;points=[[0,0.5],[1,0.5]];portConstraint=eastwest;whiteSpace=wrap;html=1;" vertex="1" parent="FD8P4zI6O13hWfLaP9B8-0">
          <mxGeometry y="130" width="260" height="26" as="geometry" />
        </mxCell>
        <mxCell id="FD8P4zI6O13hWfLaP9B8-8" value="+ TaxaConversaoProposta: decimal" style="text;strokeColor=none;fillColor=none;align=left;verticalAlign=top;spacingLeft=4;spacingRight=4;overflow=hidden;rotatable=0;points=[[0,0.5],[1,0.5]];portConstraint=eastwest;whiteSpace=wrap;html=1;" vertex="1" parent="FD8P4zI6O13hWfLaP9B8-0">
          <mxGeometry y="156" width="260" height="26" as="geometry" />
        </mxCell>
        <mxCell id="FD8P4zI6O13hWfLaP9B8-9" value="+ Participacoes: List&amp;lt;ParticipacaoViewModel&amp;gt;" style="text;strokeColor=none;fillColor=none;align=left;verticalAlign=top;spacingLeft=4;spacingRight=4;overflow=hidden;rotatable=0;points=[[0,0.5],[1,0.5]];portConstraint=eastwest;whiteSpace=wrap;html=1;" vertex="1" parent="FD8P4zI6O13hWfLaP9B8-0">
          <mxGeometry y="182" width="260" height="38" as="geometry" />
        </mxCell>
        <mxCell id="FD8P4zI6O13hWfLaP9B8-11" value="&lt;div&gt;+ ValorTotalProspeccoesComProposta: decimal&lt;/div&gt;" style="text;strokeColor=none;fillColor=none;align=left;verticalAlign=top;spacingLeft=4;spacingRight=4;overflow=hidden;rotatable=0;points=[[0,0.5],[1,0.5]];portConstraint=eastwest;whiteSpace=wrap;html=1;" vertex="1" parent="FD8P4zI6O13hWfLaP9B8-0">
          <mxGeometry y="220" width="260" height="40" as="geometry" />
        </mxCell>
        <mxCell id="FD8P4zI6O13hWfLaP9B8-12" value="&lt;div&gt;+ ValorMedioProspeccoesComProposta: decimal&lt;/div&gt;" style="text;strokeColor=none;fillColor=none;align=left;verticalAlign=top;spacingLeft=4;spacingRight=4;overflow=hidden;rotatable=0;points=[[0,0.5],[1,0.5]];portConstraint=eastwest;whiteSpace=wrap;html=1;" vertex="1" parent="FD8P4zI6O13hWfLaP9B8-0">
          <mxGeometry y="260" width="260" height="40" as="geometry" />
        </mxCell>
        <mxCell id="FD8P4zI6O13hWfLaP9B8-13" value="+ ValorTotalProspeccoesConvertidas: decimal" style="text;strokeColor=none;fillColor=none;align=left;verticalAlign=top;spacingLeft=4;spacingRight=4;overflow=hidden;rotatable=0;points=[[0,0.5],[1,0.5]];portConstraint=eastwest;whiteSpace=wrap;html=1;" vertex="1" parent="FD8P4zI6O13hWfLaP9B8-0">
          <mxGeometry y="300" width="260" height="40" as="geometry" />
        </mxCell>
        <mxCell id="FD8P4zI6O13hWfLaP9B8-14" value="+ ValorMedioProspeccoesConvertidas: decimal" style="text;strokeColor=none;fillColor=none;align=left;verticalAlign=top;spacingLeft=4;spacingRight=4;overflow=hidden;rotatable=0;points=[[0,0.5],[1,0.5]];portConstraint=eastwest;whiteSpace=wrap;html=1;" vertex="1" parent="FD8P4zI6O13hWfLaP9B8-0">
          <mxGeometry y="340" width="260" height="40" as="geometry" />
        </mxCell>
        <mxCell id="FD8P4zI6O13hWfLaP9B8-15" value="+ QuantidadeProspeccoesComProposta: decimal" style="text;strokeColor=none;fillColor=none;align=left;verticalAlign=top;spacingLeft=4;spacingRight=4;overflow=hidden;rotatable=0;points=[[0,0.5],[1,0.5]];portConstraint=eastwest;whiteSpace=wrap;html=1;" vertex="1" parent="FD8P4zI6O13hWfLaP9B8-0">
          <mxGeometry y="380" width="260" height="40" as="geometry" />
        </mxCell>
        <mxCell id="FD8P4zI6O13hWfLaP9B8-16" value="+ QuantidadeProspeccoesMembro: int" style="text;strokeColor=none;fillColor=none;align=left;verticalAlign=top;spacingLeft=4;spacingRight=4;overflow=hidden;rotatable=0;points=[[0,0.5],[1,0.5]];portConstraint=eastwest;whiteSpace=wrap;html=1;" vertex="1" parent="FD8P4zI6O13hWfLaP9B8-0">
          <mxGeometry y="420" width="260" height="25" as="geometry" />
        </mxCell>
        <mxCell id="FD8P4zI6O13hWfLaP9B8-17" value="+ TaxaConversaoProjeto: decimal" style="text;strokeColor=none;fillColor=none;align=left;verticalAlign=top;spacingLeft=4;spacingRight=4;overflow=hidden;rotatable=0;points=[[0,0.5],[1,0.5]];portConstraint=eastwest;whiteSpace=wrap;html=1;" vertex="1" parent="FD8P4zI6O13hWfLaP9B8-0">
          <mxGeometry y="445" width="260" height="25" as="geometry" />
        </mxCell>
        <mxCell id="FD8P4zI6O13hWfLaP9B8-18" value="+ QuantidadeProspeccoesConvertidas: decimal" style="text;strokeColor=none;fillColor=none;align=left;verticalAlign=top;spacingLeft=4;spacingRight=4;overflow=hidden;rotatable=0;points=[[0,0.5],[1,0.5]];portConstraint=eastwest;whiteSpace=wrap;html=1;" vertex="1" parent="FD8P4zI6O13hWfLaP9B8-0">
          <mxGeometry y="470" width="260" height="40" as="geometry" />
        </mxCell>
        <mxCell id="FD8P4zI6O13hWfLaP9B8-19" value="+ AssertividadePrecificacao: decimal" style="text;strokeColor=none;fillColor=none;align=left;verticalAlign=top;spacingLeft=4;spacingRight=4;overflow=hidden;rotatable=0;points=[[0,0.5],[1,0.5]];portConstraint=eastwest;whiteSpace=wrap;html=1;" vertex="1" parent="FD8P4zI6O13hWfLaP9B8-0">
          <mxGeometry y="510" width="260" height="25" as="geometry" />
        </mxCell>
        <mxCell id="FD8P4zI6O13hWfLaP9B8-20" value="+ FatorContribuicaoFinanceira: decimal" style="text;strokeColor=none;fillColor=none;align=left;verticalAlign=top;spacingLeft=4;spacingRight=4;overflow=hidden;rotatable=0;points=[[0,0.5],[1,0.5]];portConstraint=eastwest;whiteSpace=wrap;html=1;" vertex="1" parent="FD8P4zI6O13hWfLaP9B8-0">
          <mxGeometry y="535" width="260" height="25" as="geometry" />
        </mxCell>
        <mxCell id="FD8P4zI6O13hWfLaP9B8-21" value="+ MediaFatores: decimal" style="text;strokeColor=none;fillColor=none;align=left;verticalAlign=top;spacingLeft=4;spacingRight=4;overflow=hidden;rotatable=0;points=[[0,0.5],[1,0.5]];portConstraint=eastwest;whiteSpace=wrap;html=1;" vertex="1" parent="FD8P4zI6O13hWfLaP9B8-0">
          <mxGeometry y="560" width="260" height="25" as="geometry" />
        </mxCell>
        <mxCell id="FD8P4zI6O13hWfLaP9B8-22" value="+ RankPorIndicador: RankParticipacao" style="text;strokeColor=none;fillColor=none;align=left;verticalAlign=top;spacingLeft=4;spacingRight=4;overflow=hidden;rotatable=0;points=[[0,0.5],[1,0.5]];portConstraint=eastwest;whiteSpace=wrap;html=1;" vertex="1" parent="FD8P4zI6O13hWfLaP9B8-0">
          <mxGeometry y="585" width="260" height="25" as="geometry" />
        </mxCell>
        <mxCell id="FD8P4zI6O13hWfLaP9B8-23" value="+ ValoresMinMedMax: Dictionary&amp;lt;string, decimal&amp;gt;" style="text;strokeColor=none;fillColor=none;align=left;verticalAlign=top;spacingLeft=4;spacingRight=4;overflow=hidden;rotatable=0;points=[[0,0.5],[1,0.5]];portConstraint=eastwest;whiteSpace=wrap;html=1;" vertex="1" parent="FD8P4zI6O13hWfLaP9B8-0">
          <mxGeometry y="610" width="260" height="40" as="geometry" />
        </mxCell>
        <mxCell id="FD8P4zI6O13hWfLaP9B8-24" value="+ Labels: List&amp;lt;string&amp;gt;" style="text;strokeColor=none;fillColor=none;align=left;verticalAlign=top;spacingLeft=4;spacingRight=4;overflow=hidden;rotatable=0;points=[[0,0.5],[1,0.5]];portConstraint=eastwest;whiteSpace=wrap;html=1;" vertex="1" parent="FD8P4zI6O13hWfLaP9B8-0">
          <mxGeometry y="650" width="260" height="25" as="geometry" />
        </mxCell>
        <mxCell id="FD8P4zI6O13hWfLaP9B8-25" value="+ Valores: List&amp;lt;decimal&amp;gt;" style="text;strokeColor=none;fillColor=none;align=left;verticalAlign=top;spacingLeft=4;spacingRight=4;overflow=hidden;rotatable=0;points=[[0,0.5],[1,0.5]];portConstraint=eastwest;whiteSpace=wrap;html=1;" vertex="1" parent="FD8P4zI6O13hWfLaP9B8-0">
          <mxGeometry y="675" width="260" height="25" as="geometry" />
        </mxCell>
        <mxCell id="FD8P4zI6O13hWfLaP9B8-26" value="+ RankSobreMedia: RankParticipacao" style="text;strokeColor=none;fillColor=none;align=left;verticalAlign=top;spacingLeft=4;spacingRight=4;overflow=hidden;rotatable=0;points=[[0,0.5],[1,0.5]];portConstraint=eastwest;whiteSpace=wrap;html=1;" vertex="1" parent="FD8P4zI6O13hWfLaP9B8-0">
          <mxGeometry y="700" width="260" height="25" as="geometry" />
        </mxCell>
        <mxCell id="FD8P4zI6O13hWfLaP9B8-2" value="" style="line;strokeWidth=1;fillColor=none;align=left;verticalAlign=middle;spacingTop=-1;spacingLeft=3;spacingRight=3;rotatable=0;labelPosition=right;points=[];portConstraint=eastwest;strokeColor=inherit;" vertex="1" parent="FD8P4zI6O13hWfLaP9B8-0">
          <mxGeometry y="725" width="260" height="8" as="geometry" />
        </mxCell>
        <mxCell id="FD8P4zI6O13hWfLaP9B8-27" value="Use" style="endArrow=open;endSize=12;dashed=1;html=1;rounded=0;" edge="1" parent="WIyWlLk6GJQsqaUBKTNV-1" source="e4k9r0PAlpyfam_94y2I-144" target="FD8P4zI6O13hWfLaP9B8-0">
          <mxGeometry width="160" relative="1" as="geometry">
            <mxPoint x="-220" y="1310" as="sourcePoint" />
            <mxPoint x="-60" y="1310" as="targetPoint" />
          </mxGeometry>
        </mxCell>
        <mxCell id="FD8P4zI6O13hWfLaP9B8-28" value="Use" style="endArrow=open;endSize=12;dashed=1;html=1;rounded=0;" edge="1" parent="WIyWlLk6GJQsqaUBKTNV-1" source="zkfFHV4jXpPFQw0GAbJ--17" target="FD8P4zI6O13hWfLaP9B8-0">
          <mxGeometry width="160" relative="1" as="geometry">
            <mxPoint x="80" y="1530" as="sourcePoint" />
            <mxPoint x="240" y="1530" as="targetPoint" />
          </mxGeometry>
        </mxCell>
        <mxCell id="FD8P4zI6O13hWfLaP9B8-55" value="UsuarioParticipacaoDTO" style="swimlane;fontStyle=1;align=center;verticalAlign=top;childLayout=stackLayout;horizontal=1;startSize=26;horizontalStack=0;resizeParent=1;resizeParentMax=0;resizeLast=0;collapsible=1;marginBottom=0;whiteSpace=wrap;html=1;" vertex="1" parent="WIyWlLk6GJQsqaUBKTNV-1">
          <mxGeometry x="-720" y="1546" width="240" height="280" as="geometry" />
        </mxCell>
        <mxCell id="FD8P4zI6O13hWfLaP9B8-56" value="+ Id: string" style="text;strokeColor=none;fillColor=none;align=left;verticalAlign=top;spacingLeft=4;spacingRight=4;overflow=hidden;rotatable=0;points=[[0,0.5],[1,0.5]];portConstraint=eastwest;whiteSpace=wrap;html=1;" vertex="1" parent="FD8P4zI6O13hWfLaP9B8-55">
          <mxGeometry y="26" width="240" height="26" as="geometry" />
        </mxCell>
        <mxCell id="FD8P4zI6O13hWfLaP9B8-59" value="+ Casa: Instituto" style="text;strokeColor=none;fillColor=none;align=left;verticalAlign=top;spacingLeft=4;spacingRight=4;overflow=hidden;rotatable=0;points=[[0,0.5],[1,0.5]];portConstraint=eastwest;whiteSpace=wrap;html=1;" vertex="1" parent="FD8P4zI6O13hWfLaP9B8-55">
          <mxGeometry y="52" width="240" height="26" as="geometry" />
        </mxCell>
        <mxCell id="FD8P4zI6O13hWfLaP9B8-60" value="+ Cargo: CargoDTO" style="text;strokeColor=none;fillColor=none;align=left;verticalAlign=top;spacingLeft=4;spacingRight=4;overflow=hidden;rotatable=0;points=[[0,0.5],[1,0.5]];portConstraint=eastwest;whiteSpace=wrap;html=1;" vertex="1" parent="FD8P4zI6O13hWfLaP9B8-55">
          <mxGeometry y="78" width="240" height="26" as="geometry" />
        </mxCell>
        <mxCell id="FD8P4zI6O13hWfLaP9B8-61" value="+ Nivel: Nivel" style="text;strokeColor=none;fillColor=none;align=left;verticalAlign=top;spacingLeft=4;spacingRight=4;overflow=hidden;rotatable=0;points=[[0,0.5],[1,0.5]];portConstraint=eastwest;whiteSpace=wrap;html=1;" vertex="1" parent="FD8P4zI6O13hWfLaP9B8-55">
          <mxGeometry y="104" width="240" height="26" as="geometry" />
        </mxCell>
        <mxCell id="FD8P4zI6O13hWfLaP9B8-62" value="+ EmailConfirmed: bool" style="text;strokeColor=none;fillColor=none;align=left;verticalAlign=top;spacingLeft=4;spacingRight=4;overflow=hidden;rotatable=0;points=[[0,0.5],[1,0.5]];portConstraint=eastwest;whiteSpace=wrap;html=1;" vertex="1" parent="FD8P4zI6O13hWfLaP9B8-55">
          <mxGeometry y="130" width="240" height="26" as="geometry" />
        </mxCell>
        <mxCell id="FD8P4zI6O13hWfLaP9B8-63" value="+ Email: string" style="text;strokeColor=none;fillColor=none;align=left;verticalAlign=top;spacingLeft=4;spacingRight=4;overflow=hidden;rotatable=0;points=[[0,0.5],[1,0.5]];portConstraint=eastwest;whiteSpace=wrap;html=1;" vertex="1" parent="FD8P4zI6O13hWfLaP9B8-55">
          <mxGeometry y="156" width="240" height="26" as="geometry" />
        </mxCell>
        <mxCell id="FD8P4zI6O13hWfLaP9B8-64" value="+ UserName: string" style="text;strokeColor=none;fillColor=none;align=left;verticalAlign=top;spacingLeft=4;spacingRight=4;overflow=hidden;rotatable=0;points=[[0,0.5],[1,0.5]];portConstraint=eastwest;whiteSpace=wrap;html=1;" vertex="1" parent="FD8P4zI6O13hWfLaP9B8-55">
          <mxGeometry y="182" width="240" height="26" as="geometry" />
        </mxCell>
        <mxCell id="FD8P4zI6O13hWfLaP9B8-57" value="" style="line;strokeWidth=1;fillColor=none;align=left;verticalAlign=middle;spacingTop=-1;spacingLeft=3;spacingRight=3;rotatable=0;labelPosition=right;points=[];portConstraint=eastwest;strokeColor=inherit;" vertex="1" parent="FD8P4zI6O13hWfLaP9B8-55">
          <mxGeometry y="208" width="240" height="8" as="geometry" />
        </mxCell>
        <mxCell id="FD8P4zI6O13hWfLaP9B8-58" value="+ ToUsuario(): Usuario" style="text;strokeColor=none;fillColor=none;align=left;verticalAlign=top;spacingLeft=4;spacingRight=4;overflow=hidden;rotatable=0;points=[[0,0.5],[1,0.5]];portConstraint=eastwest;whiteSpace=wrap;html=1;" vertex="1" parent="FD8P4zI6O13hWfLaP9B8-55">
          <mxGeometry y="216" width="240" height="26" as="geometry" />
        </mxCell>
        <mxCell id="FD8P4zI6O13hWfLaP9B8-65" value="+ ToPesquisadorViewModel(): PesquisadorViewModel" style="text;strokeColor=none;fillColor=none;align=left;verticalAlign=top;spacingLeft=4;spacingRight=4;overflow=hidden;rotatable=0;points=[[0,0.5],[1,0.5]];portConstraint=eastwest;whiteSpace=wrap;html=1;" vertex="1" parent="FD8P4zI6O13hWfLaP9B8-55">
          <mxGeometry y="242" width="240" height="38" as="geometry" />
        </mxCell>
        <mxCell id="FD8P4zI6O13hWfLaP9B8-66" value="Use" style="endArrow=open;endSize=12;dashed=1;html=1;rounded=0;" edge="1" parent="WIyWlLk6GJQsqaUBKTNV-1" source="FD8P4zI6O13hWfLaP9B8-0" target="FD8P4zI6O13hWfLaP9B8-55">
          <mxGeometry width="160" relative="1" as="geometry">
            <mxPoint x="-450" y="1710" as="sourcePoint" />
            <mxPoint x="-290" y="1710" as="targetPoint" />
          </mxGeometry>
        </mxCell>
        <mxCell id="FD8P4zI6O13hWfLaP9B8-68" value="CargoDTO" style="swimlane;fontStyle=1;align=center;verticalAlign=top;childLayout=stackLayout;horizontal=1;startSize=26;horizontalStack=0;resizeParent=1;resizeParentMax=0;resizeLast=0;collapsible=1;marginBottom=0;whiteSpace=wrap;html=1;" vertex="1" parent="WIyWlLk6GJQsqaUBKTNV-1">
          <mxGeometry x="-720" y="1360" width="240" height="86" as="geometry" />
        </mxCell>
        <mxCell id="FD8P4zI6O13hWfLaP9B8-69" value="+ Id: int" style="text;strokeColor=none;fillColor=none;align=left;verticalAlign=top;spacingLeft=4;spacingRight=4;overflow=hidden;rotatable=0;points=[[0,0.5],[1,0.5]];portConstraint=eastwest;whiteSpace=wrap;html=1;" vertex="1" parent="FD8P4zI6O13hWfLaP9B8-68">
          <mxGeometry y="26" width="240" height="26" as="geometry" />
        </mxCell>
        <mxCell id="FD8P4zI6O13hWfLaP9B8-75" value="+ Nome: string" style="text;strokeColor=none;fillColor=none;align=left;verticalAlign=top;spacingLeft=4;spacingRight=4;overflow=hidden;rotatable=0;points=[[0,0.5],[1,0.5]];portConstraint=eastwest;whiteSpace=wrap;html=1;" vertex="1" parent="FD8P4zI6O13hWfLaP9B8-68">
          <mxGeometry y="52" width="240" height="26" as="geometry" />
        </mxCell>
        <mxCell id="FD8P4zI6O13hWfLaP9B8-76" value="" style="line;strokeWidth=1;fillColor=none;align=left;verticalAlign=middle;spacingTop=-1;spacingLeft=3;spacingRight=3;rotatable=0;labelPosition=right;points=[];portConstraint=eastwest;strokeColor=inherit;" vertex="1" parent="FD8P4zI6O13hWfLaP9B8-68">
          <mxGeometry y="78" width="240" height="8" as="geometry" />
        </mxCell>
        <mxCell id="FD8P4zI6O13hWfLaP9B8-79" value="PesquisadorParticipacaoViewModel" style="swimlane;fontStyle=1;align=center;verticalAlign=top;childLayout=stackLayout;horizontal=1;startSize=26;horizontalStack=0;resizeParent=1;resizeParentMax=0;resizeLast=0;collapsible=1;marginBottom=0;whiteSpace=wrap;html=1;" vertex="1" parent="WIyWlLk6GJQsqaUBKTNV-1">
          <mxGeometry x="-720" y="1920" width="240" height="112" as="geometry" />
        </mxCell>
        <mxCell id="FD8P4zI6O13hWfLaP9B8-80" value="+ Id: int" style="text;strokeColor=none;fillColor=none;align=left;verticalAlign=top;spacingLeft=4;spacingRight=4;overflow=hidden;rotatable=0;points=[[0,0.5],[1,0.5]];portConstraint=eastwest;whiteSpace=wrap;html=1;" vertex="1" parent="FD8P4zI6O13hWfLaP9B8-79">
          <mxGeometry y="26" width="240" height="26" as="geometry" />
        </mxCell>
        <mxCell id="FD8P4zI6O13hWfLaP9B8-81" value="+ Email: string" style="text;strokeColor=none;fillColor=none;align=left;verticalAlign=top;spacingLeft=4;spacingRight=4;overflow=hidden;rotatable=0;points=[[0,0.5],[1,0.5]];portConstraint=eastwest;whiteSpace=wrap;html=1;" vertex="1" parent="FD8P4zI6O13hWfLaP9B8-79">
          <mxGeometry y="52" width="240" height="26" as="geometry" />
        </mxCell>
        <mxCell id="FD8P4zI6O13hWfLaP9B8-84" value="+ UserName: string" style="text;strokeColor=none;fillColor=none;align=left;verticalAlign=top;spacingLeft=4;spacingRight=4;overflow=hidden;rotatable=0;points=[[0,0.5],[1,0.5]];portConstraint=eastwest;whiteSpace=wrap;html=1;" vertex="1" parent="FD8P4zI6O13hWfLaP9B8-79">
          <mxGeometry y="78" width="240" height="26" as="geometry" />
        </mxCell>
        <mxCell id="FD8P4zI6O13hWfLaP9B8-82" value="" style="line;strokeWidth=1;fillColor=none;align=left;verticalAlign=middle;spacingTop=-1;spacingLeft=3;spacingRight=3;rotatable=0;labelPosition=right;points=[];portConstraint=eastwest;strokeColor=inherit;" vertex="1" parent="FD8P4zI6O13hWfLaP9B8-79">
          <mxGeometry y="104" width="240" height="8" as="geometry" />
        </mxCell>
        <mxCell id="FD8P4zI6O13hWfLaP9B8-83" value="Use" style="endArrow=open;endSize=12;dashed=1;html=1;rounded=0;" edge="1" parent="WIyWlLk6GJQsqaUBKTNV-1" source="FD8P4zI6O13hWfLaP9B8-55" target="FD8P4zI6O13hWfLaP9B8-79">
          <mxGeometry width="160" relative="1" as="geometry">
            <mxPoint x="-360" y="1696" as="sourcePoint" />
            <mxPoint x="-530" y="1860" as="targetPoint" />
          </mxGeometry>
        </mxCell>
        <mxCell id="FD8P4zI6O13hWfLaP9B8-85" value="Use" style="endArrow=open;endSize=12;dashed=1;html=1;rounded=0;" edge="1" parent="WIyWlLk6GJQsqaUBKTNV-1" source="FD8P4zI6O13hWfLaP9B8-55" target="FD8P4zI6O13hWfLaP9B8-68">
          <mxGeometry width="160" relative="1" as="geometry">
            <mxPoint x="-601.25" y="1546" as="sourcePoint" />
            <mxPoint x="-601.25" y="1452" as="targetPoint" />
          </mxGeometry>
        </mxCell>
        <mxCell id="FD8P4zI6O13hWfLaP9B8-86" value="ParticipacaoViewModel" style="swimlane;fontStyle=1;align=center;verticalAlign=top;childLayout=stackLayout;horizontal=1;startSize=26;horizontalStack=0;resizeParent=1;resizeParentMax=0;resizeLast=0;collapsible=1;marginBottom=0;whiteSpace=wrap;html=1;" vertex="1" parent="WIyWlLk6GJQsqaUBKTNV-1">
          <mxGeometry x="-480" y="2280" width="240" height="216" as="geometry" />
        </mxCell>
        <mxCell id="FD8P4zI6O13hWfLaP9B8-87" value="+ Id: string" style="text;strokeColor=none;fillColor=none;align=left;verticalAlign=top;spacingLeft=4;spacingRight=4;overflow=hidden;rotatable=0;points=[[0,0.5],[1,0.5]];portConstraint=eastwest;whiteSpace=wrap;html=1;" vertex="1" parent="FD8P4zI6O13hWfLaP9B8-86">
          <mxGeometry y="26" width="240" height="26" as="geometry" />
        </mxCell>
        <mxCell id="FD8P4zI6O13hWfLaP9B8-90" value="+ QuantidadePesquisadores:int" style="text;strokeColor=none;fillColor=none;align=left;verticalAlign=top;spacingLeft=4;spacingRight=4;overflow=hidden;rotatable=0;points=[[0,0.5],[1,0.5]];portConstraint=eastwest;whiteSpace=wrap;html=1;" vertex="1" parent="FD8P4zI6O13hWfLaP9B8-86">
          <mxGeometry y="52" width="240" height="26" as="geometry" />
        </mxCell>
        <mxCell id="FD8P4zI6O13hWfLaP9B8-91" value="+ QuantidadeBolsistas: int" style="text;strokeColor=none;fillColor=none;align=left;verticalAlign=top;spacingLeft=4;spacingRight=4;overflow=hidden;rotatable=0;points=[[0,0.5],[1,0.5]];portConstraint=eastwest;whiteSpace=wrap;html=1;" vertex="1" parent="FD8P4zI6O13hWfLaP9B8-86">
          <mxGeometry y="78" width="240" height="26" as="geometry" />
        </mxCell>
        <mxCell id="FD8P4zI6O13hWfLaP9B8-92" value="+ QuantidadeEstagiarios: int" style="text;strokeColor=none;fillColor=none;align=left;verticalAlign=top;spacingLeft=4;spacingRight=4;overflow=hidden;rotatable=0;points=[[0,0.5],[1,0.5]];portConstraint=eastwest;whiteSpace=wrap;html=1;" vertex="1" parent="FD8P4zI6O13hWfLaP9B8-86">
          <mxGeometry y="104" width="240" height="26" as="geometry" />
        </mxCell>
        <mxCell id="FD8P4zI6O13hWfLaP9B8-93" value="+ QuantidadeMembros: int" style="text;strokeColor=none;fillColor=none;align=left;verticalAlign=top;spacingLeft=4;spacingRight=4;overflow=hidden;rotatable=0;points=[[0,0.5],[1,0.5]];portConstraint=eastwest;whiteSpace=wrap;html=1;" vertex="1" parent="FD8P4zI6O13hWfLaP9B8-86">
          <mxGeometry y="130" width="240" height="26" as="geometry" />
        </mxCell>
        <mxCell id="FD8P4zI6O13hWfLaP9B8-94" value="+ ValorEstagiarios: decimal" style="text;strokeColor=none;fillColor=none;align=left;verticalAlign=top;spacingLeft=4;spacingRight=4;overflow=hidden;rotatable=0;points=[[0,0.5],[1,0.5]];portConstraint=eastwest;whiteSpace=wrap;html=1;" vertex="1" parent="FD8P4zI6O13hWfLaP9B8-86">
          <mxGeometry y="156" width="240" height="26" as="geometry" />
        </mxCell>
        <mxCell id="FD8P4zI6O13hWfLaP9B8-95" value="+ ValorBolsistas: decimal" style="text;strokeColor=none;fillColor=none;align=left;verticalAlign=top;spacingLeft=4;spacingRight=4;overflow=hidden;rotatable=0;points=[[0,0.5],[1,0.5]];portConstraint=eastwest;whiteSpace=wrap;html=1;" vertex="1" parent="FD8P4zI6O13hWfLaP9B8-86">
          <mxGeometry y="182" width="240" height="26" as="geometry" />
        </mxCell>
        <mxCell id="FD8P4zI6O13hWfLaP9B8-88" value="" style="line;strokeWidth=1;fillColor=none;align=left;verticalAlign=middle;spacingTop=-1;spacingLeft=3;spacingRight=3;rotatable=0;labelPosition=right;points=[];portConstraint=eastwest;strokeColor=inherit;" vertex="1" parent="FD8P4zI6O13hWfLaP9B8-86">
          <mxGeometry y="208" width="240" height="8" as="geometry" />
        </mxCell>
        <mxCell id="FD8P4zI6O13hWfLaP9B8-96" value="Use" style="endArrow=open;endSize=12;dashed=1;html=1;rounded=0;" edge="1" parent="WIyWlLk6GJQsqaUBKTNV-1" source="FD8P4zI6O13hWfLaP9B8-0" target="FD8P4zI6O13hWfLaP9B8-86">
          <mxGeometry width="160" relative="1" as="geometry">
            <mxPoint x="-590" y="1836" as="sourcePoint" />
            <mxPoint x="-590" y="1930" as="targetPoint" />
          </mxGeometry>
        </mxCell>
        <mxCell id="FD8P4zI6O13hWfLaP9B8-97" value="RankParticipacao" style="swimlane;fontStyle=1;align=center;verticalAlign=top;childLayout=stackLayout;horizontal=1;startSize=26;horizontalStack=0;resizeParent=1;resizeParentMax=0;resizeLast=0;collapsible=1;marginBottom=0;whiteSpace=wrap;html=1;" vertex="1" parent="WIyWlLk6GJQsqaUBKTNV-1">
          <mxGeometry x="-200" y="2280" width="280" height="526" as="geometry" />
        </mxCell>
        <mxCell id="FD8P4zI6O13hWfLaP9B8-98" value="+ RankValorTotalProspeccoesComProposta: decimal" style="text;strokeColor=none;fillColor=none;align=left;verticalAlign=top;spacingLeft=4;spacingRight=4;overflow=hidden;rotatable=0;points=[[0,0.5],[1,0.5]];portConstraint=eastwest;whiteSpace=wrap;html=1;" vertex="1" parent="FD8P4zI6O13hWfLaP9B8-97">
          <mxGeometry y="26" width="280" height="44" as="geometry" />
        </mxCell>
        <mxCell id="FD8P4zI6O13hWfLaP9B8-101" value="&lt;div&gt;+ RankValorTotalProspeccoesConvertidas: decimal&lt;/div&gt;&lt;div&gt;&lt;br&gt;&lt;/div&gt;" style="text;strokeColor=none;fillColor=none;align=left;verticalAlign=top;spacingLeft=4;spacingRight=4;overflow=hidden;rotatable=0;points=[[0,0.5],[1,0.5]];portConstraint=eastwest;whiteSpace=wrap;html=1;" vertex="1" parent="FD8P4zI6O13hWfLaP9B8-97">
          <mxGeometry y="70" width="280" height="44" as="geometry" />
        </mxCell>
        <mxCell id="FD8P4zI6O13hWfLaP9B8-102" value="+ RankValorMedioProspeccoesComProposta: decimal" style="text;strokeColor=none;fillColor=none;align=left;verticalAlign=top;spacingLeft=4;spacingRight=4;overflow=hidden;rotatable=0;points=[[0,0.5],[1,0.5]];portConstraint=eastwest;whiteSpace=wrap;html=1;" vertex="1" parent="FD8P4zI6O13hWfLaP9B8-97">
          <mxGeometry y="114" width="280" height="44" as="geometry" />
        </mxCell>
        <mxCell id="FD8P4zI6O13hWfLaP9B8-103" value="+ RankValorMedioProspeccoesConvertidas: decimal" style="text;strokeColor=none;fillColor=none;align=left;verticalAlign=top;spacingLeft=4;spacingRight=4;overflow=hidden;rotatable=0;points=[[0,0.5],[1,0.5]];portConstraint=eastwest;whiteSpace=wrap;html=1;" vertex="1" parent="FD8P4zI6O13hWfLaP9B8-97">
          <mxGeometry y="158" width="280" height="44" as="geometry" />
        </mxCell>
        <mxCell id="FD8P4zI6O13hWfLaP9B8-104" value="+ RankQuantidadeProspeccoesConvertidas: decimal" style="text;strokeColor=none;fillColor=none;align=left;verticalAlign=top;spacingLeft=4;spacingRight=4;overflow=hidden;rotatable=0;points=[[0,0.5],[1,0.5]];portConstraint=eastwest;whiteSpace=wrap;html=1;" vertex="1" parent="FD8P4zI6O13hWfLaP9B8-97">
          <mxGeometry y="202" width="280" height="44" as="geometry" />
        </mxCell>
        <mxCell id="FD8P4zI6O13hWfLaP9B8-105" value="+ RankQuantidadeProspeccoes: decimal" style="text;strokeColor=none;fillColor=none;align=left;verticalAlign=top;spacingLeft=4;spacingRight=4;overflow=hidden;rotatable=0;points=[[0,0.5],[1,0.5]];portConstraint=eastwest;whiteSpace=wrap;html=1;" vertex="1" parent="FD8P4zI6O13hWfLaP9B8-97">
          <mxGeometry y="246" width="280" height="34" as="geometry" />
        </mxCell>
        <mxCell id="FD8P4zI6O13hWfLaP9B8-106" value="+ RankQuantidadeProspeccoesLider: decimal" style="text;strokeColor=none;fillColor=none;align=left;verticalAlign=top;spacingLeft=4;spacingRight=4;overflow=hidden;rotatable=0;points=[[0,0.5],[1,0.5]];portConstraint=eastwest;whiteSpace=wrap;html=1;" vertex="1" parent="FD8P4zI6O13hWfLaP9B8-97">
          <mxGeometry y="280" width="280" height="34" as="geometry" />
        </mxCell>
        <mxCell id="FD8P4zI6O13hWfLaP9B8-107" value="+ RankQuantidadeProspeccoesMembro: decimal" style="text;strokeColor=none;fillColor=none;align=left;verticalAlign=top;spacingLeft=4;spacingRight=4;overflow=hidden;rotatable=0;points=[[0,0.5],[1,0.5]];portConstraint=eastwest;whiteSpace=wrap;html=1;" vertex="1" parent="FD8P4zI6O13hWfLaP9B8-97">
          <mxGeometry y="314" width="280" height="34" as="geometry" />
        </mxCell>
        <mxCell id="FD8P4zI6O13hWfLaP9B8-108" value="+ RankAssertividadePrecificacao: decimal" style="text;strokeColor=none;fillColor=none;align=left;verticalAlign=top;spacingLeft=4;spacingRight=4;overflow=hidden;rotatable=0;points=[[0,0.5],[1,0.5]];portConstraint=eastwest;whiteSpace=wrap;html=1;" vertex="1" parent="FD8P4zI6O13hWfLaP9B8-97">
          <mxGeometry y="348" width="280" height="34" as="geometry" />
        </mxCell>
        <mxCell id="FD8P4zI6O13hWfLaP9B8-109" value="+ RankFatorContribuicaoFinanceira: decimal" style="text;strokeColor=none;fillColor=none;align=left;verticalAlign=top;spacingLeft=4;spacingRight=4;overflow=hidden;rotatable=0;points=[[0,0.5],[1,0.5]];portConstraint=eastwest;whiteSpace=wrap;html=1;" vertex="1" parent="FD8P4zI6O13hWfLaP9B8-97">
          <mxGeometry y="382" width="280" height="34" as="geometry" />
        </mxCell>
        <mxCell id="FD8P4zI6O13hWfLaP9B8-110" value="+ RankQuantidadeProspeccoesComProposta: decimal" style="text;strokeColor=none;fillColor=none;align=left;verticalAlign=top;spacingLeft=4;spacingRight=4;overflow=hidden;rotatable=0;points=[[0,0.5],[1,0.5]];portConstraint=eastwest;whiteSpace=wrap;html=1;" vertex="1" parent="FD8P4zI6O13hWfLaP9B8-97">
          <mxGeometry y="416" width="280" height="34" as="geometry" />
        </mxCell>
        <mxCell id="FD8P4zI6O13hWfLaP9B8-111" value="+ RankValorTotalProspeccoes: decimal" style="text;strokeColor=none;fillColor=none;align=left;verticalAlign=top;spacingLeft=4;spacingRight=4;overflow=hidden;rotatable=0;points=[[0,0.5],[1,0.5]];portConstraint=eastwest;whiteSpace=wrap;html=1;" vertex="1" parent="FD8P4zI6O13hWfLaP9B8-97">
          <mxGeometry y="450" width="280" height="34" as="geometry" />
        </mxCell>
        <mxCell id="FD8P4zI6O13hWfLaP9B8-112" value="+ RankValorMedioProspeccoes: decimal" style="text;strokeColor=none;fillColor=none;align=left;verticalAlign=top;spacingLeft=4;spacingRight=4;overflow=hidden;rotatable=0;points=[[0,0.5],[1,0.5]];portConstraint=eastwest;whiteSpace=wrap;html=1;" vertex="1" parent="FD8P4zI6O13hWfLaP9B8-97">
          <mxGeometry y="484" width="280" height="34" as="geometry" />
        </mxCell>
        <mxCell id="FD8P4zI6O13hWfLaP9B8-99" value="" style="line;strokeWidth=1;fillColor=none;align=left;verticalAlign=middle;spacingTop=-1;spacingLeft=3;spacingRight=3;rotatable=0;labelPosition=right;points=[];portConstraint=eastwest;strokeColor=inherit;" vertex="1" parent="FD8P4zI6O13hWfLaP9B8-97">
          <mxGeometry y="518" width="280" height="8" as="geometry" />
        </mxCell>
        <mxCell id="FD8P4zI6O13hWfLaP9B8-113" value="Use" style="endArrow=open;endSize=12;dashed=1;html=1;rounded=0;" edge="1" parent="WIyWlLk6GJQsqaUBKTNV-1" source="FD8P4zI6O13hWfLaP9B8-0" target="FD8P4zI6O13hWfLaP9B8-97">
          <mxGeometry width="160" relative="1" as="geometry">
            <mxPoint x="-301" y="2063" as="sourcePoint" />
            <mxPoint x="-349" y="2310" as="targetPoint" />
          </mxGeometry>
        </mxCell>
        <mxCell id="FD8P4zI6O13hWfLaP9B8-114" value="IndicadoresFinanceirosDTO" style="swimlane;fontStyle=1;align=center;verticalAlign=top;childLayout=stackLayout;horizontal=1;startSize=26;horizontalStack=0;resizeParent=1;resizeParentMax=0;resizeLast=0;collapsible=1;marginBottom=0;whiteSpace=wrap;html=1;" vertex="1" parent="WIyWlLk6GJQsqaUBKTNV-1">
          <mxGeometry x="-960" y="424" width="200" height="112" as="geometry" />
        </mxCell>
        <mxCell id="FD8P4zI6O13hWfLaP9B8-115" value="+ Despesa: decimal" style="text;strokeColor=none;fillColor=none;align=left;verticalAlign=top;spacingLeft=4;spacingRight=4;overflow=hidden;rotatable=0;points=[[0,0.5],[1,0.5]];portConstraint=eastwest;whiteSpace=wrap;html=1;" vertex="1" parent="FD8P4zI6O13hWfLaP9B8-114">
          <mxGeometry y="26" width="200" height="26" as="geometry" />
        </mxCell>
        <mxCell id="FD8P4zI6O13hWfLaP9B8-120" value="+ Data: DateTime" style="text;strokeColor=none;fillColor=none;align=left;verticalAlign=top;spacingLeft=4;spacingRight=4;overflow=hidden;rotatable=0;points=[[0,0.5],[1,0.5]];portConstraint=eastwest;whiteSpace=wrap;html=1;" vertex="1" parent="FD8P4zI6O13hWfLaP9B8-114">
          <mxGeometry y="52" width="200" height="26" as="geometry" />
        </mxCell>
        <mxCell id="FD8P4zI6O13hWfLaP9B8-121" value="+ QtdPesquisadores: int" style="text;strokeColor=none;fillColor=none;align=left;verticalAlign=top;spacingLeft=4;spacingRight=4;overflow=hidden;rotatable=0;points=[[0,0.5],[1,0.5]];portConstraint=eastwest;whiteSpace=wrap;html=1;" vertex="1" parent="FD8P4zI6O13hWfLaP9B8-114">
          <mxGeometry y="78" width="200" height="26" as="geometry" />
        </mxCell>
        <mxCell id="FD8P4zI6O13hWfLaP9B8-116" value="" style="line;strokeWidth=1;fillColor=none;align=left;verticalAlign=middle;spacingTop=-1;spacingLeft=3;spacingRight=3;rotatable=0;labelPosition=right;points=[];portConstraint=eastwest;strokeColor=inherit;" vertex="1" parent="FD8P4zI6O13hWfLaP9B8-114">
          <mxGeometry y="104" width="200" height="8" as="geometry" />
        </mxCell>
        <mxCell id="FD8P4zI6O13hWfLaP9B8-119" value="Use" style="endArrow=open;endSize=12;dashed=1;html=1;rounded=0;" edge="1" parent="WIyWlLk6GJQsqaUBKTNV-1" source="e4k9r0PAlpyfam_94y2I-82" target="FD8P4zI6O13hWfLaP9B8-114">
          <mxGeometry width="160" relative="1" as="geometry">
            <mxPoint x="-750" y="630" as="sourcePoint" />
            <mxPoint x="-750" y="570" as="targetPoint" />
          </mxGeometry>
        </mxCell>
      </root>
    </mxGraphModel>
  </diagram>
</mxfile>
